<svg width="430" height="430" xmlns="http://www.w3.org/2000/svg">
 <g>
  <title>background</title>
  <rect x="-1" y="-1" width="432" height="432" id="canvas_background" fill="none"/>
 </g>

 <g>
  <title>Layer 1</title>
  <g id="svg_1">
   <g id="lines">
    <path stroke="#999999" id="Line" d="m296.85944,130.99042l-49.94565,-90.64214" stroke-width="2" fill="none"/>
    <path stroke="#999999" id="Line2" d="m162.43771,39.73166l-38.23004,136.88815" stroke-width="2" fill="none"/>
    <path stroke="#999999" id="Line3" d="m84.12778,87.21093l-25.28113,100.50793" stroke-width="2" fill="none"/>
    <path stroke="#999999" id="Line4" d="m58.23003,187.71886l67.21087,-10.48242" stroke-width="2" fill="none"/>
    <path stroke="#999999" id="Line5" d="m58.84665,187.10225l-21.58147,68.44409" stroke-width="2" fill="none"/>
    <path stroke="#999999" id="Line6" d="m35.41534,258.01279l78.92652,40.07986" stroke-width="2" fill="none"/>
    <path stroke="#003366" id="Line7" d="m115.57508,298.09265l-33.91373,49.3291" stroke-width="2" fill="none"/>
    <path stroke="#999999" id="Line8" d="m81.66135,347.42175l89.40891,41.31308" stroke-width="2" fill="none"/>
    <path stroke="#999999" id="Line9" d="m171.68687,388.73483l-56.11179,-90.64218" stroke-width="2" fill="none"/>
    <path stroke="#999999" id="Line10" d="m172.30353,388.11819l6.16612,-59.19485" stroke-width="2" fill="none"/>
    <path stroke="#999999" id="Line11" d="m178.46965,328.92334l102.35783,53.02875" stroke-width="2" fill="none"/>
    <path stroke="#999999" id="Line12" d="m280.82748,381.95209l-22.19809,-82.62619" stroke-width="2" fill="none"/>
    <path stroke="#999999" id="Line13" d="m256.77957,296.24283l-73.37701,-61.04474" stroke-width="2" fill="none"/>
    <path stroke="#999999" id="Line14" d="m258.62939,300.55911l-31.44728,-102.3578" stroke-width="2" fill="none"/>
    <path stroke="#999999" id="Line15" d="m258.62939,296.85944l28.36423,-83.85942" stroke-width="2" fill="none"/>
    <path stroke="#999999" id="Line16" d="m258.01279,296.24283l81.39294,-43.16295" stroke-width="2" fill="none"/>
    <path stroke="#999999" id="Line17" d="m338.78915,253.6965l14.1821,73.99365" stroke-width="2" fill="none"/>
    <path stroke="#999999" id="Line18" d="m354.2045,328.30673l-98.04153,-31.4473" stroke-width="2" fill="none"/>
    <path stroke="#003366" id="Line19" d="m256.16296,296.85944l-77.69331,33.29712" stroke-width="2" fill="none"/>
    <path stroke="#003366" id="Line20" d="m178.46965,330.15656l-62.89457,-33.29712" stroke-width="2" fill="none"/>
    <path stroke="#999999" id="Line21" d="m115.57508,296.85944l140.58788,0" stroke-width="2" fill="none"/>
    <path stroke="#999999" id="Line22" d="m115.57508,296.85944l70.29394,-61.66135" stroke-width="2" fill="none"/>
    <path stroke="#999999" id="Line23" d="m115.57508,296.85944l-56.72844,-110.99042" stroke-width="2" fill="none"/>
    <path stroke="#999999" id="Line24" d="m115.57508,296.85944l9.86582,-128.2556" stroke-width="2" fill="none"/>
    <path stroke="#999999" id="Line25" d="m125.4409,177.23643l101.1246,19.73163" stroke-width="2" fill="none"/>
    <path stroke="#999999" id="Line26" d="m226.56551,196.96806l-42.54633,39.46326" stroke-width="2" fill="none"/>
    <path stroke="#999999" id="Line27" d="m372.70288,135.30672l-33.91373,118.38979" stroke-width="2" fill="none"/>
    <path stroke="#999999" id="Line28" d="m391.8179,226.56551l-19.11502,-91.25879" stroke-width="2" fill="none"/>
    <path stroke="#999999" id="Line29" d="m391.8179,226.56551l-38.23004,101.74126" stroke-width="2" fill="none"/>
    <path stroke="#999999" id="Line30" d="m352.97125,328.92337l-72.14377,53.02872" stroke-width="2" fill="none"/>
    <path stroke="#999999" id="Line31" d="m281.44409,381.95209l-110.37379,6.16614" stroke-width="2" fill="none"/>
    <path stroke="#999999" id="Line32" d="m296.85944,130.9904l-9.86581,83.24286" stroke-width="2" fill="none"/>
    <path stroke="#999999" id="Line33" d="m338.78915,253.6965l-41.92972,-122.70609" stroke-width="2" fill="none"/>
    <path stroke="#999999" id="Line34" d="m330.15656,80.42815l-31.44727,49.32904" stroke-width="2" fill="none"/>
    <path stroke="#999999" id="Line35" d="m328.92334,79.81151l43.16293,56.1118" stroke-width="2" fill="none"/>
    <path stroke="#999999" id="Line36" d="m328.92334,80.42812l-80.77632,-40.07987" stroke-width="2" fill="none"/>
    <path stroke="#999999" id="Line37" d="m248.14697,40.34824l-86.94249,0" stroke-width="2" fill="none"/>
    <path stroke="#999999" id="Line38" d="m160.58786,41.58147l-75.22684,44.39617" stroke-width="2" fill="none"/>
    <path stroke="#999999" id="Line39" d="m84.74439,85.36106l-49.94567,82.62615" stroke-width="2" fill="none"/>
    <path stroke="#999999" id="Line40" d="m35.41534,167.37065l0,90.64214" stroke-width="2" fill="none"/>
    <path stroke="#999999" id="Line41" d="m35.41534,258.62939l46.86263,90.02557" stroke-width="2" fill="none"/>
    <path stroke="#999999" id="Line42" d="m246.91371,40.34827l-64.12776,83.24279" stroke-width="2" fill="none"/>
    <path stroke="#999999" id="Line43" d="m295.00958,129.75719l-80.77646,-46.86269" stroke-width="2" fill="none"/>
    <path stroke="#999999" id="Line44" d="m372.70285,137.15656l-75.22681,-6.16614" stroke-width="2" fill="none"/>
    <path stroke="#2dbaab" id="Line45" d="m181.55269,124.20767l-45.62936,1.84984" stroke-width="2" fill="none"/>
    <path stroke="#2dbaab" id="Line46" d="m138.38979,126.67413l-53.64536,-39.46323" stroke-width="2" fill="none"/>
    <path stroke="#999999" id="Line47" d="m391.81787,227.18214l-53.02872,26.51436" stroke-width="2" fill="none"/>
    <path stroke="#f04e23" id="Line48" d="m336.9393,251.84665l-49.94568,-37.61342" stroke-width="2" fill="none"/>
    <path stroke="#f04e23" id="Line49" d="m285.76041,214.23323l-99.27473,20.34824" stroke-width="2" fill="none"/>
    <path stroke="#f04e23" id="Line50" d="m184.63579,234.58147l-59.19489,-56.11182" stroke-width="2" fill="none"/>
    <path stroke="#f04e23" id="Line51" d="m124.20767,177.23643l-88.79232,80.77635" stroke-width="2" fill="none"/>
    <path stroke="#999999" id="Line52" d="m227.79874,153.80511l-2.46646,44.39618" stroke-width="2" fill="none"/>
    <path stroke="#2dbaab" id="Line53" d="m181.55272,123.59106l45.01279,31.44729" stroke-width="2" fill="none"/>
    <path stroke="#999999" id="Line54" d="m227.18211,155.03835l69.67732,-24.04793" stroke-width="2" fill="none"/>
    <path stroke="#999999" id="Line55" d="m296.24283,132.22366l-70.29393,65.97763" stroke-width="2" fill="none"/>
    <path stroke="#999999" id="Line56" d="m182.16934,124.8243l-56.72844,53.64535" stroke-width="2" fill="none"/>
    <path stroke="#999999" id="Line57" d="m182.16934,125.44092l42.54633,70.29391" stroke-width="2" fill="none"/>
    <path stroke="#999999" id="svg_2" d="m213.61681,82.89467l-51.17909,-41.31319" stroke-width="2" fill="none"/>
   </g>
   <g id="ellipses">
    <path rel="1" class="green" id="Ellipse1" d="m60.69649,90.29393c0,-12.25987 9.93821,-22.19808 22.19808,-22.19808c12.25988,0 22.19809,9.93821 22.19809,22.19808c0,12.25988 -9.93821,22.19809 -22.19809,22.19809c-12.25987,0 -22.19808,-9.93821 -22.19808,-22.19809z" fill="#2dbaab"/>
    <path id="Ellipse2" d="m225.9489,42.19809c0,-12.25988 9.93822,-22.19809 22.19807,-22.19809c12.25989,0 22.19809,9.93821 22.19809,22.19809c0,12.25988 -9.9382,22.19809 -22.19809,22.19809c-12.25986,0 -22.19807,-9.93821 -22.19807,-22.19809z" fill="#999999"/>
    <path rel="6" id="Ellipse3" d="m351.73804,134.69009c0,-12.25987 9.93817,-22.19807 22.19809,-22.19807c12.25989,0 22.19809,9.9382 22.19809,22.19807c0,12.25989 -9.9382,22.19809 -22.19809,22.19809c-12.25992,0 -22.19809,-9.9382 -22.19809,-22.19809z" fill="#999999"/>
    <path rel="9" class="orange" id="Ellipse4" d="m160.58786,234.58148c0,-12.25987 9.93823,-22.19809 22.19809,-22.19809c12.2599,0 22.19809,9.93822 22.19809,22.19809c0,12.25987 -9.93819,22.19809 -22.19809,22.19809c-12.25986,0 -22.19809,-9.93822 -22.19809,-22.19809z" fill="#f04e23"/>
    <path rel="16" class="blue" id="Ellipse5" d="m235.81471,297.47604c0,-12.25986 9.93822,-22.19809 22.19807,-22.19809c12.25989,0 22.19809,9.93823 22.19809,22.19809c0,12.25992 -9.9382,22.19809 -22.19809,22.19809c-12.25986,0 -22.19807,-9.93817 -22.19807,-22.19809z" fill="#003366"/>
    <path id="Ellipse6" d="m255.54634,381.33548c0,-12.25989 9.93822,-22.19809 22.19807,-22.19809c12.25989,0 22.19809,9.9382 22.19809,22.19809c0,12.25989 -9.9382,22.19809 -22.19809,22.19809c-12.25986,0 -22.19807,-9.9382 -22.19807,-22.19809z" fill="#999999"/>
    <path id="Ellipse7" d="m23.69968,167.98723c0,-8.17322 6.62551,-14.79872 14.79872,-14.79872c8.17322,0 14.79873,6.6255 14.79873,14.79872c0,8.17322 -6.62551,14.79872 -14.79873,14.79872c-8.17321,0 -14.79872,-6.6255 -14.79872,-14.79872z" fill="#999999"/>
    <path rel="7" class="orange" id="Ellipse8" d="m20,258.01279c0,-8.17322 6.62551,-14.79872 14.79872,-14.79872c8.17321,0 14.79873,6.6255 14.79873,14.79872c0,8.17322 -6.62551,14.79874 -14.79873,14.79874c-8.17321,0 -14.79872,-6.62552 -14.79872,-14.79874z" fill="#f04e23"/>
    <path id="Ellipse9" d="m313.508,79.19489c0,-8.17322 6.6254,-14.79872 14.79874,-14.79872c8.17331,0 14.79871,6.6255 14.79871,14.79872c0,8.17321 -6.6254,14.79872 -14.79871,14.79872c-8.17334,0 -14.79874,-6.62551 -14.79874,-14.79872z" fill="#999999"/>
    <path id="Ellipse10" d="m156.88818,388.73483c0,-8.17322 6.6254,-14.79871 14.79872,-14.79871c8.17332,0 14.79872,6.62549 14.79872,14.79871c0,8.17322 -6.6254,14.79874 -14.79872,14.79874c-8.17332,0 -14.79872,-6.62552 -14.79872,-14.79874z" fill="#999999"/>
    <path rel="12" id="Ellipse11" d="m376.40259,228.41534c0,-8.17322 6.62537,-14.79872 14.79871,-14.79872c8.17334,0 14.79874,6.6255 14.79874,14.79872c0,8.17322 -6.6254,14.79872 -14.79874,14.79872c-8.17334,0 -14.79871,-6.6255 -14.79871,-14.79872z" fill="#999999"/>
    <path rel="17" id="Ellipse12" d="m338.17255,328.30673c0,-8.17322 6.6254,-14.79874 14.79871,-14.79874c8.17334,0 14.79874,6.62552 14.79874,14.79874c0,8.17322 -6.6254,14.79871 -14.79874,14.79871c-8.17331,0 -14.79871,-6.62549 -14.79871,-14.79871z" fill="#999999"/>
    <path rel="15" class="blue" id="Ellipse13" d="m167.98723,329.53995c0,-5.44876 4.41693,-9.86581 9.86581,-9.86581c5.44888,0 9.86581,4.41705 9.86581,9.86581c0,5.44876 -4.41693,9.86581 -9.86581,9.86581c-5.44888,0 -9.86581,-4.41705 -9.86581,-9.86581z" fill="#003366"/>
    <path rel="14" class="blue" id="Ellipse14" d="m99.54315,297.47604c0,-8.17313 6.62542,-14.79868 14.79872,-14.79868c8.17331,0 14.79871,6.62555 14.79871,14.79868c0,8.17319 -6.6254,14.79874 -14.79871,14.79874c-8.1733,0 -14.79872,-6.62555 -14.79872,-14.79874z" fill="#003366"/>
    <path id="Ellipse15" d="m50.21406,187.10225c0,-5.44878 4.41693,-9.86581 9.86582,-9.86581c5.44888,0 9.86581,4.41704 9.86581,9.86581c0,5.44876 -4.41693,9.86581 -9.86581,9.86581c-5.44889,0 -9.86582,-4.41705 -9.86582,-9.86581z" fill="#999999"/>
    <path id="Ellipse16" d="m216.08307,197.58467c0,-5.44878 4.41705,-9.86581 9.86583,-9.86581c5.44888,0 9.86581,4.41704 9.86581,9.86581c0,5.44878 -4.41693,9.86581 -9.86581,9.86581c-5.44878,0 -9.86583,-4.41704 -9.86583,-9.86581z" fill="#999999"/>
    <path rel="4" class="green" id="Ellipse17" d="m217.3163,155.65495c0,-5.44876 4.41705,-9.86581 9.86581,-9.86581c5.44888,0 9.86581,4.41705 9.86581,9.86581c0,5.44876 -4.41693,9.86581 -9.86581,9.86581c-5.44876,0 -9.86581,-4.41705 -9.86581,-9.86581z" fill="#2dbaab"/>
    <path rel="5" id="Ellipse18" d="m286.37701,130.99042c0,-5.44877 4.41705,-9.86581 9.86581,-9.86581c5.44888,0 9.86581,4.41705 9.86581,9.86581c0,5.44876 -4.41693,9.86581 -9.86581,9.86581c-5.44876,0 -9.86581,-4.41705 -9.86581,-9.86581z" fill="#999999"/>
    <path id="Ellipse19" d="m150.72205,41.58147c0,-5.44876 4.41705,-9.86581 9.86581,-9.86581c5.4489,0 9.86581,4.41705 9.86581,9.86581c0,5.44876 -4.41692,9.86581 -9.86581,9.86581c-5.44876,0 -9.86581,-4.41705 -9.86581,-9.86581z" fill="#999999"/>
    <path rel="10" class="orange" id="Ellipse20" d="m276.5112,216.08307c0,-5.44876 4.41702,-9.86581 9.86581,-9.86581c5.44888,0 9.86581,4.41705 9.86581,9.86581c0,5.44878 -4.41693,9.86583 -9.86581,9.86583c-5.44879,0 -9.86581,-4.41705 -9.86581,-9.86583z" fill="#f04e23"/>
    <path rel="11" class="orange" id="Ellipse21" d="m328.30673,253.07988c0,-5.44876 4.41702,-9.86581 9.86581,-9.86581c5.44888,0 9.86581,4.41705 9.86581,9.86581c0,5.44878 -4.41693,9.86583 -9.86581,9.86583c-5.44879,0 -9.86581,-4.41705 -9.86581,-9.86583z" fill="#f04e23"/>
    <path rel="8" class="orange" id="Ellipse22" d="m114.95847,177.85304c0,-5.44878 4.41704,-9.86581 9.86581,-9.86581c5.44889,0 9.86581,4.41704 9.86581,9.86581c0,5.44878 -4.41692,9.86581 -9.86581,9.86581c-5.44878,0 -9.86581,-4.41704 -9.86581,-9.86581z" fill="#f04e23"/>
    <path rel="13" class="blue" id="Ellipse23" d="m71.79553,348.03836c0,-5.44879 4.41704,-9.86581 9.86581,-9.86581c5.44888,0 9.86581,4.41702 9.86581,9.86581c0,5.44876 -4.41693,9.86581 -9.86581,9.86581c-5.44878,0 -9.86581,-4.41705 -9.86581,-9.86581z" fill="#003366"/>
    <path rel="3" class="green" id="Ellipse24" d="m160.58786,123.59106c0,-12.25987 9.93823,-22.19808 22.19809,-22.19808c12.2599,0 22.19809,9.93821 22.19809,22.19808c0,12.25988 -9.93819,22.19808 -22.19809,22.19808c-12.25986,0 -22.19809,-9.9382 -22.19809,-22.19808z" fill="#2dbaab"/>
    <path rel="2" class="green" id="Ellipse25" d="m127.29074,124.82429c0,-5.44878 4.41704,-9.86581 9.86581,-9.86581c5.44888,0 9.86581,4.41704 9.86581,9.86581c0,5.44875 -4.41693,9.86581 -9.86581,9.86581c-5.44878,0 -9.86581,-4.41705 -9.86581,-9.86581z" fill="#2dbaab"/>
    <path id="svg_3" d="m203.7507,81.66127c0,-5.44876 4.41704,-9.86581 9.86581,-9.86581c5.44888,0 9.86581,4.41705 9.86581,9.86581c0,5.44875 -4.41693,9.86581 -9.86581,9.86581c-5.44878,0 -9.86581,-4.41706 -9.86581,-9.86581z" fill="#999999"/>
   </g>
  </g>
 </g>
</svg>
